HIERARCHY
ROOT Hips
{
	OFFSET -3.958830 18.904000 13.208200
	CHANNELS 6 Xposition Yposition Zposition Zrotation Yrotation Xrotation 
	JOINT LHipJoint
	{
		OFFSET 0.000000 0.000000 0.000000
		CHANNELS 3 Zrotation Yrotation Xrotation
		JOINT LeftUpLeg
		{
			OFFSET 1.800000 -1.400000 0.085000
			CHANNELS 3 Zrotation Yrotation Xrotation
			JOINT LeftLeg
			{
				OFFSET 2.215000 -6.000000 0.000000
				CHANNELS 3 Zrotation Yrotation Xrotation
				JOINT LeftFoot
				{
					OFFSET 2.500000 -6.900000 0.000000
					CHANNELS 3 Zrotation Yrotation Xrotation
					JOINT LeftToeBase
					{
						OFFSET 0.200000 -0.500000 1.950000
						CHANNELS 3 Zrotation Yrotation Xrotation
						End Site
						{
							OFFSET 0.000000 0.000000 0.000000
						}
					}
				}
			}
		}
	}
	JOINT RHipJoint
	{
		OFFSET 0.000000 0.000000 0.000000
		CHANNELS 3 Zrotation Yrotation Xrotation
		JOINT RightUpLeg
		{
			OFFSET -1.800000 -1.400000 0.085000
			CHANNELS 3 Zrotation Yrotation Xrotation
			JOINT RightLeg
			{
				OFFSET -2.215000 -6.000000 0.000000
				CHANNELS 3 Zrotation Yrotation Xrotation
				JOINT RightFoot
				{
					OFFSET -2.500000 -6.900000 0.000000
					CHANNELS 3 Zrotation Yrotation Xrotation
					JOINT RightToeBase
					{
						OFFSET -0.200000 -0.500000 1.950000
						CHANNELS 3 Zrotation Yrotation Xrotation
						End Site
						{
							OFFSET 0.000000 0.000000 0.000000
						}
					}
				}
			}
		}
	}
	JOINT LowerBack
	{
		OFFSET 0.000000 0.000000 0.000000
		CHANNELS 3 Zrotation Yrotation Xrotation
		JOINT Spine
		{
			OFFSET -0.087000 1.940000 -0.288900
			CHANNELS 3 Zrotation Yrotation Xrotation
			JOINT Spine1
			{
				OFFSET 0.000000 1.950000 0.060000
				CHANNELS 3 Zrotation Yrotation Xrotation
				JOINT Neck
				{
					OFFSET 0.000000 0.000000 0.000000
					CHANNELS 3 Zrotation Yrotation Xrotation
					JOINT Neck1
					{
						OFFSET 0.000000 1.600000 0.340000
						CHANNELS 3 Zrotation Yrotation Xrotation
						JOINT Head
						{
							OFFSET 0.000000 1.667000 -0.240000
							CHANNELS 3 Zrotation Yrotation Xrotation
							End Site
							{
								OFFSET 0.000000 0.000000 0.000000
							}
						}
					}
				}
				JOINT LeftShoulder
				{
					OFFSET 0.000000 0.000000 0.000000
					CHANNELS 3 Zrotation Yrotation Xrotation
					JOINT LeftArm
					{
						OFFSET 2.700000 1.550000 -0.730000
						CHANNELS 3 Zrotation Yrotation Xrotation
						JOINT LeftForeArm
						{
							OFFSET 5.450000 0.000000 0.000000
							CHANNELS 3 Zrotation Yrotation Xrotation
							JOINT LeftHand
							{
								OFFSET 3.450000 0.000000 0.000000
								CHANNELS 3 Zrotation Yrotation Xrotation
								JOINT LeftHandIndex1
								{
									OFFSET 0.750000 0.000000 0.000000
									CHANNELS 3 Zrotation Yrotation Xrotation
									End Site
									{
										OFFSET 0.000000 0.000000 0.000000
									}
								}
							}
						}
					}
				}
				JOINT RightShoulder
				{
					OFFSET 0.000000 0.000000 0.000000
					CHANNELS 3 Zrotation Yrotation Xrotation
					JOINT RightArm
					{
						OFFSET -2.700000 1.550000 -0.730000
						CHANNELS 3 Zrotation Yrotation Xrotation
						JOINT RightForeArm
						{
							OFFSET -5.450000 0.000000 0.000000
							CHANNELS 3 Zrotation Yrotation Xrotation
							JOINT RightHand
							{
								OFFSET -3.450000 0.000000 0.000000
								CHANNELS 3 Zrotation Yrotation Xrotation
								JOINT RightHandIndex1
								{
									OFFSET -0.750000 0.000000 0.000000
									CHANNELS 3 Zrotation Yrotation Xrotation
									End Site
									{
										OFFSET 0.000000 0.000000 0.000000
									}
								}
							}
						}
					}
				}
			}
		}
	}
}
MOTION
Frames: 10
Frame Time: 0.016667
-4.192360 18.382440 0.624600 -8.252852 -20.365679 0.254280 -14.969735 11.680306 4.026814 -6.618185 -0.282998 -46.529685 -9.573722 8.689416 23.718122 0.001356 4.375817 2.868645 0.127680 -0.050110 0.113600 18.385678 -11.761563 3.508401 1.335657 -1.612341 11.302201 4.519512 -7.193347 13.039896 -1.218877 -5.459179 2.300750 -0.381100 0.333110 0.714810 -3.737079 2.339400 -8.131329 4.888229 12.773712 23.761684 -5.362412 15.429613 0.455880 3.886270 -1.929459 -19.892323 10.879867 -3.505470 89.568299 -6.589270 4.025990 18.433160 -3.635411 1.848202 4.573554 -62.481690 24.657225 -18.420558 -6.205269 -2.398541 -2.144950 -3.823501 2.194662 0.719460 0.010520 0.676890 0.349750 -5.037376 12.862049 15.005044 57.776266 11.556193 -15.601250 -15.232524 67.599806 -15.787184 2.197608 -1.161000 0.136080 0.074830 -0.029480 0.315910 
-4.290600 18.341320 0.862600 -9.147037 -18.989372 2.738264 -14.883094 11.399142 3.983930 -6.510779 -1.375901 -42.898676 -9.727418 5.814736 13.760817 -0.219776 2.944558 3.478131 -0.083240 -0.295690 -0.071060 18.505821 -11.843614 3.579833 1.678175 -2.171987 10.548791 4.463558 -6.953703 8.998370 -1.111119 -5.335249 2.399409 -0.503160 0.532780 0.725110 -4.049399 2.806898 -8.186152 6.329695 13.224882 17.546866 -5.294051 15.116957 2.706535 3.564305 -1.624248 -20.288805 9.169342 -2.544622 87.866414 -5.662940 3.691870 22.192860 -0.417138 1.136524 5.595425 -62.401066 24.158953 -18.324576 -6.818315 -2.165232 -2.172521 -3.996594 2.138084 0.667610 0.139120 0.542100 0.324620 -7.053213 12.154668 15.372473 56.582808 9.192904 -14.097720 -0.330344 65.423885 -6.206572 2.223554 -1.313581 0.061970 0.122210 0.128690 0.338150 
-4.383090 18.298620 1.066740 -8.694740 -18.085829 3.871250 -14.823921 11.144717 3.935709 -7.561331 -2.503074 -39.244433 -8.311282 3.685671 6.267802 -0.421991 2.255207 3.834660 -0.239750 -0.495960 -0.195070 18.632798 -11.797473 3.562533 0.867273 -2.194518 10.515331 4.121172 -6.708016 5.224917 -1.068952 -5.307920 2.460271 -0.580150 0.736780 0.734470 -4.378793 3.004871 -8.124278 6.845410 13.527782 12.938690 -5.933699 14.732356 5.775458 3.443030 -1.508165 -19.908063 6.375953 0.004368 86.226352 -3.370770 3.571940 21.890060 1.115541 0.134976 6.677842 -61.600897 23.731925 -18.447408 -7.492106 -3.630675 -2.344703 -4.124509 2.052598 0.692330 0.243130 0.441480 0.301770 -7.704284 11.446428 14.708820 54.200626 8.450473 -12.458087 11.814398 62.624880 1.100272 2.205780 -1.292679 -0.046220 0.240510 0.285200 0.333590 
-4.471860 18.206410 1.262260 -8.474754 -17.627245 4.427065 -14.749509 10.986225 3.856248 -8.820503 -3.291904 -36.091049 -5.642665 2.432714 1.998603 -0.562258 1.911840 3.960167 -0.261420 -0.531430 -0.238440 18.780302 -11.683067 3.529472 -0.225767 -1.824276 11.426254 4.274879 -6.621855 3.232828 -1.079876 -5.436696 2.380686 -0.560230 0.778990 0.732310 -4.781398 2.984969 -7.960635 8.054610 13.537579 9.166258 -7.427448 14.498942 9.068145 3.327162 -2.128587 -19.207400 1.231145 4.357206 84.049281 1.377510 2.280660 19.088670 1.933980 -0.936518 7.395307 -59.772413 21.710709 -16.427038 -7.676807 -0.993268 -2.192198 -4.183585 2.107937 0.718040 0.244950 0.382500 0.246030 -7.735628 11.348351 13.881007 49.016176 7.936386 -10.006105 26.948524 61.310457 9.542421 2.240747 -1.362955 -0.087100 0.237250 0.366530 0.307380 
-4.559320 18.111600 1.422700 -8.520074 -16.711448 4.349673 -14.774481 11.074746 3.831398 -9.599252 -3.577827 -33.636319 -3.989164 1.975877 0.003261 -0.575803 1.823574 4.053332 -0.284300 -0.513350 -0.297140 18.771412 -11.572971 3.486889 -0.486160 -1.924051 12.084958 3.916288 -6.629436 3.294714 -1.116658 -5.438866 2.435597 -0.559780 0.869890 0.698650 -4.750625 2.603519 -7.914322 8.284046 13.311557 8.382816 -7.372687 14.388858 10.091651 3.224340 -3.015678 -19.408411 -3.566520 6.863121 81.541165 3.495830 0.696250 15.348760 2.172689 -1.524426 7.892579 -59.009653 20.952203 -16.318036 -8.337066 -2.907707 -2.232185 -4.139558 2.058498 0.747060 0.245440 0.392410 0.290020 -7.390497 12.014428 14.024753 44.269064 4.947544 -9.365860 41.424002 59.594405 16.548134 2.298054 -1.298306 -0.121940 0.370950 0.384870 0.352070 
-4.633510 18.026380 1.597340 -9.646102 -15.961984 3.454048 -14.698031 11.357201 3.807164 -9.361753 -3.301957 -30.962314 -2.785431 1.812708 -0.466318 -0.706670 1.877668 4.011346 -0.251920 -0.513500 -0.230350 18.791386 -11.597600 3.514957 -0.316616 -2.099672 13.043215 3.495340 -6.863827 5.535115 -1.164611 -5.445501 2.391670 -0.539040 0.816140 0.686590 -4.870876 2.214680 -7.997196 11.824836 12.741181 10.645950 -9.052490 14.661618 9.599167 3.615821 -4.120734 -19.873788 -8.855648 9.037584 80.849305 3.798650 -0.697210 9.011480 -1.248971 -2.063316 7.496492 -55.659995 20.794903 -14.846203 -8.185060 -3.381033 -2.275431 -4.094446 2.002780 0.886970 0.164060 0.438070 0.224270 -4.955995 12.719312 14.830333 42.070257 -0.831397 -10.898123 53.671992 63.659294 24.186617 2.359531 -1.198516 -0.165480 0.437520 0.438540 0.292470 
-4.705010 17.973720 1.787890 -9.860749 -13.754431 2.494255 -14.739369 11.667995 3.882586 -9.652854 -3.411843 -28.760810 -3.287886 1.868467 -0.603578 -0.745755 1.992675 3.965974 -0.203950 -0.500160 -0.172860 18.707401 -11.471709 3.453729 -0.520754 -1.920530 13.446406 4.316481 -7.228470 8.858536 -1.193857 -5.486370 2.327755 -0.509880 0.756690 0.666310 -4.678920 1.435949 -8.103153 12.552135 11.182045 12.775336 -9.306415 13.557009 7.974532 3.616357 -5.571796 -20.298764 -15.402009 12.689399 79.440782 4.893250 -1.361680 5.969700 -6.193613 -3.270165 7.973267 -54.034580 23.820739 -15.396054 -9.096997 -4.987566 -2.507557 -3.978822 2.036355 0.979580 0.081030 0.471740 0.206130 -0.046591 14.080154 14.603720 38.565618 -5.330052 -11.915525 61.242074 62.978886 27.849642 2.456815 -1.127654 -0.196350 0.453530 0.431740 0.253850 
-4.746980 17.922310 2.022520 -11.358776 -9.686148 1.871134 -14.618967 11.824721 3.879160 -9.583265 -3.495805 -26.964537 -3.137658 1.940853 0.093170 -0.765021 2.054938 3.994516 -0.172470 -0.465860 -0.208880 18.815279 -11.444703 3.464081 1.006975 -1.921008 13.177818 5.520945 -7.693003 13.345812 -1.238036 -5.646565 2.258253 -0.456730 0.791140 0.620960 -5.027871 1.152839 -8.140387 16.237203 8.400224 13.693781 -11.628685 11.226381 5.905344 2.896564 -6.304127 -19.415625 -18.413713 14.154047 77.660654 8.349900 -3.215090 5.013270 -11.272443 -3.560745 8.074950 -51.123798 26.319673 -15.037765 -10.338123 -6.782697 -2.609709 -3.864912 2.116785 1.012400 0.046880 0.455460 0.269360 5.775968 13.530465 13.480155 35.485459 -8.257155 -11.593127 65.338400 61.643552 29.801801 2.508028 -1.139066 -0.250710 0.501980 0.401290 0.268860 
-4.789960 17.873940 2.175210 -12.566502 -6.060059 -0.557979 -14.623195 12.173410 3.814558 -9.217806 -3.235104 -25.482977 -2.343734 2.227752 3.439633 -0.702202 2.037144 3.982393 -0.049630 -0.306620 -0.210680 18.753441 -11.440174 3.497674 2.717949 -1.131156 12.221934 6.811613 -8.610957 21.697469 -1.365857 -6.129599 2.079540 -0.391750 0.727680 0.666240 -4.946693 0.697347 -8.230999 17.506069 5.315973 18.841218 -12.857884 8.887837 2.260736 2.691915 -6.669904 -17.905514 -19.010805 14.090774 74.991770 10.259840 -4.145090 2.169140 -15.619375 -2.541473 6.908307 -48.593280 26.077348 -14.091572 -11.206069 -8.390677 -2.487392 -3.727395 2.340890 1.000410 0.001790 0.506000 0.347580 9.909400 12.372340 12.229540 33.736112 -9.557934 -11.510416 68.005488 62.035766 31.771236 2.555817 -1.241420 -0.166710 0.418920 0.309310 0.306780 
-4.797390 17.833640 2.261840 -14.484361 -3.970169 -3.577042 -14.748676 12.708903 3.656711 -8.310220 -2.705186 -25.384263 0.196923 2.530960 8.893280 -0.791914 2.257730 3.893210 -0.071060 -0.411600 -0.118570 18.568021 -11.234342 3.603176 4.725399 1.357839 9.750846 9.259166 -10.424903 32.919830 -1.545646 -7.041678 1.716146 -0.417810 0.674200 0.638820 -4.530208 -0.198145 -8.306356 18.694107 2.609390 27.801615 -13.328362 7.723524 -4.502450 3.494660 -6.767796 -15.694626 -17.993529 13.075118 72.729208 10.205020 -4.291080 -2.409110 -18.376362 1.244147 3.903454 -48.493950 23.850254 -12.818117 -11.407286 -6.865523 -2.520917 -3.727235 2.269024 1.113720 -0.069840 0.505190 0.268970 10.446835 9.409687 10.839417 33.954878 -10.002854 -11.730650 67.951524 59.841308 31.055372 2.560475 -1.204494 -0.248960 0.439480 0.348560 0.219690 
